<svg width="515" height="189" viewBox="0 0 515 189" fill="none" xmlns="http://www.w3.org/2000/svg">
<g filter="url(#filter0_d_11512_9256)">
<path d="M94.2703 82C94.2703 99.1082 80.2102 113 62.8378 113C45.4655 113 31.4054 99.1082 31.4054 82C31.4054 64.8918 45.4655 51 62.8378 51C80.2102 51 94.2703 64.8918 94.2703 82Z" fill="#241F0E"/>
<path d="M94.2703 82C94.2703 99.1082 80.2102 113 62.8378 113C45.4655 113 31.4054 99.1082 31.4054 82C31.4054 64.8918 45.4655 51 62.8378 51C80.2102 51 94.2703 64.8918 94.2703 82Z" fill="url(#paint0_linear_11512_9256)" fill-opacity="0.2"/>
<path d="M94.2703 82C94.2703 99.1082 80.2102 113 62.8378 113C45.4655 113 31.4054 99.1082 31.4054 82C31.4054 64.8918 45.4655 51 62.8378 51C80.2102 51 94.2703 64.8918 94.2703 82Z" stroke="#D4AF37" stroke-width="2"/>
</g>
<path d="M61.9898 71.8792C62.2606 71.3304 62.3961 71.056 62.58 70.9683C62.7399 70.8921 62.9258 70.8921 63.0858 70.9683C63.2696 71.056 63.4051 71.3304 63.676 71.8792L66.2459 77.0856C66.3259 77.2476 66.3659 77.3286 66.4243 77.3915C66.4761 77.4472 66.5381 77.4924 66.607 77.5244C66.6849 77.5606 66.7743 77.5737 66.953 77.5998L72.7016 78.44C73.307 78.5285 73.6097 78.5728 73.7497 78.7206C73.8716 78.8493 73.9289 79.026 73.9057 79.2017C73.8791 79.4036 73.6599 79.6171 73.2217 80.0439L69.0635 84.094C68.9339 84.2202 68.8691 84.2833 68.8273 84.3585C68.7902 84.425 68.7665 84.498 68.7573 84.5736C68.747 84.6589 68.7623 84.7481 68.7928 84.9264L69.774 90.647C69.8775 91.2503 69.9292 91.552 69.832 91.731C69.7474 91.8868 69.597 91.996 69.4227 92.0283C69.2224 92.0655 68.9515 91.923 68.4097 91.6381L63.2705 88.9354C63.1104 88.8512 63.0303 88.8091 62.946 88.7926C62.8713 88.7779 62.7945 88.7779 62.7198 88.7926C62.6354 88.8091 62.5554 88.8512 62.3952 88.9354L57.2561 91.6381C56.7142 91.923 56.4433 92.0655 56.243 92.0283C56.0687 91.996 55.9183 91.8868 55.8337 91.731C55.7365 91.552 55.7882 91.2503 55.8917 90.647L56.8729 84.9264C56.9035 84.7481 56.9187 84.6589 56.9084 84.5736C56.8992 84.498 56.8755 84.425 56.8385 84.3585C56.7966 84.2833 56.7318 84.2202 56.6022 84.094L52.444 80.0439C52.0058 79.6171 51.7866 79.4036 51.76 79.2017C51.7368 79.026 51.7941 78.8493 51.916 78.7206C52.056 78.5728 52.3587 78.5285 52.9641 78.44L58.7127 77.5998C58.8915 77.5737 58.9808 77.5606 59.0587 77.5244C59.1276 77.4924 59.1897 77.4472 59.2414 77.3915C59.2998 77.3286 59.3398 77.2476 59.4198 77.0856L61.9898 71.8792Z" stroke="#D4AF37" stroke-width="2" stroke-linecap="round" stroke-linejoin="round"/>
<g filter="url(#filter1_d_11512_9256)">
<path d="M183.101 82C183.101 103.385 165.526 120.75 143.811 120.75C122.095 120.75 104.52 103.385 104.52 82C104.52 60.6147 122.095 43.25 143.811 43.25C165.526 43.25 183.101 60.6147 183.101 82Z" fill="#080F22"/>
<path d="M183.101 82C183.101 103.385 165.526 120.75 143.811 120.75C122.095 120.75 104.52 103.385 104.52 82C104.52 60.6147 122.095 43.25 143.811 43.25C165.526 43.25 183.101 60.6147 183.101 82Z" fill="url(#paint1_linear_11512_9256)" fill-opacity="0.2"/>
<path d="M183.101 82C183.101 103.385 165.526 120.75 143.811 120.75C122.095 120.75 104.52 103.385 104.52 82C104.52 60.6147 122.095 43.25 143.811 43.25C165.526 43.25 183.101 60.6147 183.101 82Z" stroke="#2D70E3" stroke-width="2.5"/>
</g>
<path d="M143.826 96.0762C141.152 96.0762 138.538 95.2833 136.315 93.7978C134.092 92.3123 132.359 90.2009 131.336 87.7306C130.313 85.2604 130.045 82.5421 130.567 79.9197C131.088 77.2973 132.376 74.8884 134.266 72.9977C136.157 71.1071 138.566 69.8195 141.188 69.2979C143.811 68.7762 146.529 69.0439 148.999 70.0672C151.47 71.0904 153.581 72.8232 155.066 75.0464C156.552 77.2696 157.345 79.8833 157.345 82.5571C157.341 86.1414 155.915 89.5778 153.381 92.1123C150.846 94.6467 147.41 96.0723 143.826 96.0762ZM143.826 71.2913C141.598 71.2913 139.419 71.952 137.567 73.1899C135.714 74.4278 134.27 76.1873 133.418 78.2459C132.565 80.3044 132.342 82.5696 132.776 84.755C133.211 86.9404 134.284 88.9477 135.86 90.5233C137.435 92.0989 139.443 93.1718 141.628 93.6065C143.813 94.0412 146.079 93.8181 148.137 92.9654C150.196 92.1128 151.955 90.6688 153.193 88.8161C154.431 86.9634 155.092 84.7853 155.092 82.5571C155.088 79.5702 153.9 76.7066 151.788 74.5946C149.676 72.4825 146.813 71.2945 143.826 71.2913Z" fill="#2D70E3"/>
<g filter="url(#filter2_d_11512_9256)">
<path d="M288.399 82C288.399 107.804 267.193 128.75 241 128.75C214.807 128.75 193.601 107.804 193.601 82C193.601 56.1965 214.807 35.25 241 35.25C267.193 35.25 288.399 56.1965 288.399 82Z" fill="#1E0F3E"/>
<path d="M288.399 82C288.399 107.804 267.193 128.75 241 128.75C214.807 128.75 193.601 107.804 193.601 82C193.601 56.1965 214.807 35.25 241 35.25C267.193 35.25 288.399 56.1965 288.399 82Z" fill="url(#paint2_linear_11512_9256)" fill-opacity="0.2"/>
<path d="M288.399 82C288.399 107.804 267.193 128.75 241 128.75C214.807 128.75 193.601 107.804 193.601 82C193.601 56.1965 214.807 35.25 241 35.25C267.193 35.25 288.399 56.1965 288.399 82Z" stroke="#6F41D2" stroke-width="2.5"/>
</g>
<g clip-path="url(#clip0_11512_9256)">
<path d="M229.374 74.1068C228.351 72.964 227.84 72.3926 227.821 71.907C227.804 71.4852 227.985 71.0797 228.311 70.8109C228.686 70.5015 229.453 70.5015 230.986 70.5015H251.052C252.586 70.5015 253.352 70.5015 253.727 70.8109C254.053 71.0797 254.234 71.4852 254.217 71.907C254.198 72.3926 253.687 72.964 252.664 74.1068L244.95 82.7287C244.746 82.9565 244.644 83.0704 244.571 83.2C244.507 83.315 244.46 83.4388 244.431 83.5674C244.399 83.7125 244.399 83.8653 244.399 84.171V91.3997C244.399 91.6641 244.399 91.7963 244.356 91.9106C244.319 92.0116 244.257 92.1021 244.177 92.1746C244.087 92.2566 243.964 92.3057 243.719 92.4039L239.123 94.2425C238.626 94.4412 238.377 94.5406 238.178 94.4992C238.003 94.4629 237.85 94.3593 237.752 94.2108C237.639 94.041 237.639 93.7735 237.639 93.2383V84.171C237.639 83.8653 237.639 83.7125 237.607 83.5674C237.578 83.4388 237.531 83.315 237.467 83.2C237.394 83.0704 237.292 82.9565 237.088 82.7287L229.374 74.1068Z" stroke="#6F41D2" stroke-width="2" stroke-linecap="round" stroke-linejoin="round"/>
</g>
<g filter="url(#filter3_d_11512_9256)">
<path d="M377.48 82C377.48 103.385 359.905 120.75 338.189 120.75C316.474 120.75 298.899 103.385 298.899 82C298.899 60.6147 316.474 43.25 338.189 43.25C359.905 43.25 377.48 60.6147 377.48 82Z" fill="#200707"/>
<path d="M377.48 82C377.48 103.385 359.905 120.75 338.189 120.75C316.474 120.75 298.899 103.385 298.899 82C298.899 60.6147 316.474 43.25 338.189 43.25C359.905 43.25 377.48 60.6147 377.48 82Z" fill="url(#paint3_linear_11512_9256)" fill-opacity="0.2"/>
<path d="M377.48 82C377.48 103.385 359.905 120.75 338.189 120.75C316.474 120.75 298.899 103.385 298.899 82C298.899 60.6147 316.474 43.25 338.189 43.25C359.905 43.25 377.48 60.6147 377.48 82Z" stroke="#F78182" stroke-width="2.5"/>
</g>
<path d="M333.055 92.8522C331.019 92.8522 329.029 92.2484 327.336 91.1171C325.642 89.9859 324.323 88.378 323.544 86.4968C322.764 84.6156 322.561 82.5455 322.958 80.5485C323.355 78.5514 324.336 76.7169 325.775 75.2771C327.215 73.8373 329.05 72.8568 331.047 72.4595C333.044 72.0623 335.114 72.2662 336.995 73.0454C338.876 73.8246 340.484 75.1442 341.615 76.8372C342.747 78.5303 343.351 80.5208 343.351 82.557C343.348 85.2865 342.262 87.9034 340.332 89.8335C338.402 91.7636 335.785 92.8493 333.055 92.8522ZM333.055 73.9776C331.358 73.9776 329.7 74.4808 328.289 75.4235C326.878 76.3662 325.778 77.7061 325.129 79.2738C324.48 80.8415 324.31 82.5665 324.641 84.2307C324.972 85.895 325.789 87.4236 326.989 88.6235C328.189 89.8233 329.717 90.6404 331.382 90.9715C333.046 91.3025 334.771 91.1326 336.338 90.4833C337.906 89.8339 339.246 88.7343 340.189 87.3234C341.131 85.9125 341.635 84.2538 341.635 82.557C341.632 80.2823 340.727 78.1016 339.119 76.4932C337.511 74.8848 335.33 73.9801 333.055 73.9776Z" fill="#F78182"/>
<path d="M343.35 92.8522C341.314 92.8522 339.323 92.2484 337.63 91.1171C335.937 89.9859 334.618 88.378 333.839 86.4968C333.059 84.6156 332.856 82.5455 333.253 80.5485C333.65 78.5514 334.631 76.7169 336.07 75.2771C337.51 73.8373 339.345 72.8568 341.342 72.4595C343.339 72.0623 345.409 72.2662 347.29 73.0454C349.171 73.8246 350.779 75.1442 351.91 76.8372C353.042 78.5303 353.645 80.5208 353.645 82.557C353.642 85.2865 352.557 87.9034 350.627 89.8335C348.697 91.7636 346.08 92.8493 343.35 92.8522ZM343.35 73.9776C341.653 73.9776 339.995 74.4808 338.584 75.4235C337.173 76.3662 336.073 77.7061 335.424 79.2738C334.775 80.8415 334.605 82.5665 334.936 84.2307C335.267 85.895 336.084 87.4236 337.284 88.6235C338.483 89.8233 340.012 90.6404 341.676 90.9715C343.341 91.3025 345.066 91.1326 346.633 90.4833C348.201 89.8339 349.541 88.7343 350.484 87.3234C351.426 85.9125 351.93 84.2538 351.93 82.557C351.927 80.2823 351.022 78.1016 349.414 76.4932C347.806 74.8848 345.625 73.9801 343.35 73.9776Z" fill="#F78182"/>
<g filter="url(#filter4_d_11512_9256)">
<path d="M450.345 82C450.345 98.967 436.4 112.75 419.162 112.75C401.925 112.75 387.98 98.967 387.98 82C387.98 65.033 401.925 51.25 419.162 51.25C436.4 51.25 450.345 65.033 450.345 82Z" fill="#0A1412"/>
<path d="M450.345 82C450.345 98.967 436.4 112.75 419.162 112.75C401.925 112.75 387.98 98.967 387.98 82C387.98 65.033 401.925 51.25 419.162 51.25C436.4 51.25 450.345 65.033 450.345 82Z" fill="url(#paint4_linear_11512_9256)" fill-opacity="0.2"/>
<path d="M450.345 82C450.345 98.967 436.4 112.75 419.162 112.75C401.925 112.75 387.98 98.967 387.98 82C387.98 65.033 401.925 51.25 419.162 51.25C436.4 51.25 450.345 65.033 450.345 82Z" stroke="#74E1B6" stroke-width="2.5"/>
</g>
<path d="M409.024 87.541L417.672 74.7371C418.15 74.0294 418.389 73.6756 418.701 73.5567C418.973 73.4531 419.283 73.4531 419.555 73.5567C419.867 73.6756 420.106 74.0294 420.584 74.737L429.232 87.541C429.712 88.2512 429.952 88.6063 429.916 88.8978C429.885 89.152 429.73 89.383 429.489 89.5333C429.212 89.7056 428.734 89.7056 427.776 89.7056H410.479C409.522 89.7056 409.043 89.7056 408.767 89.5333C408.526 89.383 408.37 89.152 408.339 88.8978C408.304 88.6063 408.544 88.2512 409.024 87.541Z" fill="url(#paint5_linear_11512_9256)" fill-opacity="0.2" stroke="#74E1B6" stroke-width="2" stroke-linecap="round" stroke-linejoin="round"/>
<defs>
<filter id="filter0_d_11512_9256" x="0.405396" y="30" width="124.865" height="124" filterUnits="userSpaceOnUse" color-interpolation-filters="sRGB">
<feFlood flood-opacity="0" result="BackgroundImageFix"/>
<feColorMatrix in="SourceAlpha" type="matrix" values="0 0 0 0 0 0 0 0 0 0 0 0 0 0 0 0 0 0 127 0" result="hardAlpha"/>
<feOffset dy="10"/>
<feGaussianBlur stdDeviation="15"/>
<feComposite in2="hardAlpha" operator="out"/>
<feColorMatrix type="matrix" values="0 0 0 0 0.87451 0 0 0 0 0.784314 0 0 0 0 0.396078 0 0 0 0.2 0"/>
<feBlend mode="normal" in2="BackgroundImageFix" result="effect1_dropShadow_11512_9256"/>
<feBlend mode="normal" in="SourceGraphic" in2="effect1_dropShadow_11512_9256" result="shape"/>
</filter>
<filter id="filter1_d_11512_9256" x="78.2703" y="29.5" width="131.081" height="130" filterUnits="userSpaceOnUse" color-interpolation-filters="sRGB">
<feFlood flood-opacity="0" result="BackgroundImageFix"/>
<feColorMatrix in="SourceAlpha" type="matrix" values="0 0 0 0 0 0 0 0 0 0 0 0 0 0 0 0 0 0 127 0" result="hardAlpha"/>
<feOffset dy="12.5"/>
<feGaussianBlur stdDeviation="12.5"/>
<feComposite in2="hardAlpha" operator="out"/>
<feColorMatrix type="matrix" values="0 0 0 0 0.176471 0 0 0 0 0.439216 0 0 0 0 0.890196 0 0 0 0.25 0"/>
<feBlend mode="normal" in2="BackgroundImageFix" result="effect1_dropShadow_11512_9256"/>
<feBlend mode="normal" in="SourceGraphic" in2="effect1_dropShadow_11512_9256" result="shape"/>
</filter>
<filter id="filter2_d_11512_9256" x="154.851" y="9" width="172.297" height="171" filterUnits="userSpaceOnUse" color-interpolation-filters="sRGB">
<feFlood flood-opacity="0" result="BackgroundImageFix"/>
<feColorMatrix in="SourceAlpha" type="matrix" values="0 0 0 0 0 0 0 0 0 0 0 0 0 0 0 0 0 0 127 0" result="hardAlpha"/>
<feOffset dy="12.5"/>
<feGaussianBlur stdDeviation="18.75"/>
<feComposite in2="hardAlpha" operator="out"/>
<feColorMatrix type="matrix" values="0 0 0 0 0.552941 0 0 0 0 0.192157 0 0 0 0 0.960784 0 0 0 0.25 0"/>
<feBlend mode="normal" in2="BackgroundImageFix" result="effect1_dropShadow_11512_9256"/>
<feBlend mode="normal" in="SourceGraphic" in2="effect1_dropShadow_11512_9256" result="shape"/>
</filter>
<filter id="filter3_d_11512_9256" x="260.149" y="17" width="156.081" height="155" filterUnits="userSpaceOnUse" color-interpolation-filters="sRGB">
<feFlood flood-opacity="0" result="BackgroundImageFix"/>
<feColorMatrix in="SourceAlpha" type="matrix" values="0 0 0 0 0 0 0 0 0 0 0 0 0 0 0 0 0 0 127 0" result="hardAlpha"/>
<feOffset dy="12.5"/>
<feGaussianBlur stdDeviation="18.75"/>
<feComposite in2="hardAlpha" operator="out"/>
<feColorMatrix type="matrix" values="0 0 0 0 0.968627 0 0 0 0 0.505882 0 0 0 0 0.509804 0 0 0 0.25 0"/>
<feBlend mode="normal" in2="BackgroundImageFix" result="effect1_dropShadow_11512_9256"/>
<feBlend mode="normal" in="SourceGraphic" in2="effect1_dropShadow_11512_9256" result="shape"/>
</filter>
<filter id="filter4_d_11512_9256" x="324.23" y="0" width="189.865" height="189" filterUnits="userSpaceOnUse" color-interpolation-filters="sRGB">
<feFlood flood-opacity="0" result="BackgroundImageFix"/>
<feColorMatrix in="SourceAlpha" type="matrix" values="0 0 0 0 0 0 0 0 0 0 0 0 0 0 0 0 0 0 127 0" result="hardAlpha"/>
<feOffset dy="12.5"/>
<feGaussianBlur stdDeviation="31.25"/>
<feComposite in2="hardAlpha" operator="out"/>
<feColorMatrix type="matrix" values="0 0 0 0 0.454902 0 0 0 0 0.882353 0 0 0 0 0.713726 0 0 0 0.25 0"/>
<feBlend mode="normal" in2="BackgroundImageFix" result="effect1_dropShadow_11512_9256"/>
<feBlend mode="normal" in="SourceGraphic" in2="effect1_dropShadow_11512_9256" result="shape"/>
</filter>
<linearGradient id="paint0_linear_11512_9256" x1="62.8727" y1="50" x2="62.8727" y2="114" gradientUnits="userSpaceOnUse">
<stop stop-color="#DFC865"/>
<stop offset="1" stop-color="#DFC865" stop-opacity="0"/>
</linearGradient>
<linearGradient id="paint1_linear_11512_9256" x1="143.854" y1="42" x2="143.854" y2="122" gradientUnits="userSpaceOnUse">
<stop stop-color="#66AEF4"/>
<stop offset="1" stop-color="#66AEF4" stop-opacity="0"/>
</linearGradient>
<linearGradient id="paint2_linear_11512_9256" x1="241.052" y1="34" x2="241.052" y2="130" gradientUnits="userSpaceOnUse">
<stop stop-color="#8D31F5"/>
<stop offset="1" stop-color="#8D31F5" stop-opacity="0"/>
</linearGradient>
<linearGradient id="paint3_linear_11512_9256" x1="338.233" y1="42" x2="338.233" y2="122" gradientUnits="userSpaceOnUse">
<stop stop-color="#F78182"/>
<stop offset="1" stop-color="#F78182" stop-opacity="0"/>
</linearGradient>
<linearGradient id="paint4_linear_11512_9256" x1="419.197" y1="50" x2="419.197" y2="114" gradientUnits="userSpaceOnUse">
<stop stop-color="#74E1B6"/>
<stop offset="1" stop-color="#74E1B6" stop-opacity="0"/>
</linearGradient>
<linearGradient id="paint5_linear_11512_9256" x1="419.139" y1="73.479" x2="419.139" y2="89.7056" gradientUnits="userSpaceOnUse">
<stop stop-color="#74E1B6"/>
<stop offset="1" stop-color="#74E1B6" stop-opacity="0"/>
</linearGradient>
<clipPath id="clip0_11512_9256">
<rect width="32.4457" height="32.4457" fill="white" transform="translate(224.796 66.4458)"/>
</clipPath>
</defs>
</svg>
